HIERARCHY
ROOT hip
{
	OFFSET 0.000000 0.000000 0.000000 
	CHANNELS 6 Xposition Yposition Zposition Xrotation Zrotation Yrotation
	JOINT abdomen
	{
		OFFSET 0.000000 3.402643 0.000000 
		CHANNELS 3 Xrotation Zrotation Yrotation
		JOINT chest
		{
			OFFSET 0.000000 8.438565 -0.680529 
			CHANNELS 3 Xrotation Zrotation Yrotation
			JOINT neck
			{
				OFFSET 0.000000 10.207942 -0.272212 
				CHANNELS 3 Xrotation Zrotation Yrotation
				JOINT head
				{
					OFFSET 0.000000 3.130431 0.000000 
					CHANNELS 3 Xrotation Zrotation Yrotation
					End Site
					{
						OFFSET 0.000000 3.130435 0.000000 
					}
				}
			}
			JOINT lCollar
			{
				OFFSET 3.470700 6.669187 -0.816635 
				CHANNELS 3 Yrotation Zrotation Xrotation
				JOINT lShldr
				{
					OFFSET 3.198488 0.000000 0.000000 
					CHANNELS 3 Zrotation Yrotation Xrotation
					JOINT lForeArm
					{
						OFFSET 10.139888 0.000000 0.000000 
						CHANNELS 3 Yrotation Zrotation Xrotation
						JOINT lHand
						{
							OFFSET 8.370511 0.000000 0.000000 
							CHANNELS 3 Zrotation Yrotation Xrotation
							End Site
							{
								OFFSET 4.083176 0.000000 0.000000 
							}
						}
					}
				}
			}
			JOINT rCollar
			{
				OFFSET -3.470700 6.669187 -0.816635 
				CHANNELS 3 Yrotation Zrotation Xrotation
				JOINT rShldr
				{
					OFFSET -3.198488 0.000000 0.000000 
					CHANNELS 3 Zrotation Yrotation Xrotation
					JOINT rForeArm
					{
						OFFSET -10.139888 0.000000 0.000000 
						CHANNELS 3 Yrotation Zrotation Xrotation
						JOINT rHand
						{
							OFFSET -8.370511 0.000000 0.000000 
							CHANNELS 3 Zrotation Yrotation Xrotation
							End Site
							{
								OFFSET -4.083176 0.000000 0.000000 
							}
						}
					}
				}
			}
		}
	}
	JOINT lThigh
	{
		OFFSET 5.308129 -1.633274 1.361059 
		CHANNELS 3 Xrotation Zrotation Yrotation
		JOINT lShin
		{
			OFFSET -2.041588 -20.007561 0.000000 
			CHANNELS 3 Xrotation Zrotation Yrotation
			JOINT lFoot
			{
				OFFSET 0.000000 -19.190928 -1.224953 
				CHANNELS 3 Xrotation Yrotation Zrotation
				End Site
				{
					OFFSET 0.000000 -2.449906 4.627600 
				}
			}
		}
	}
	JOINT rThigh
	{
		OFFSET -5.308129 -1.633274 1.361059 
		CHANNELS 3 Xrotation Zrotation Yrotation
		JOINT rShin
		{
			OFFSET 2.041588 -20.007561 0.000000 
			CHANNELS 3 Xrotation Zrotation Yrotation
			JOINT rFoot
			{
				OFFSET 0.000000 -19.190928 -1.224953 
				CHANNELS 3 Xrotation Yrotation Zrotation
				End Site
				{
					OFFSET 0.000000 -2.449906 4.627600 
				}
			}
		}
	}
}
MOTION
Frames: 16
Frame Time: 0.011111
85.788666 51.392330 -5.157165 -0.154628 5.246953 -80.659180 15.333874 -7.310570 1.965123 -26.450071 3.753865 1.077895 -8.899451 -11.321799 -4.230937 8.456381 36.356892 -10.322918 -10.275489 -5.709454 -1.550532 -76.148056 -20.716854 -29.906660 -66.757370 9.406943 15.509801 8.524705 12.647240 -21.634167 5.831508 6.350754 -0.460990 75.904266 19.617622 -21.440519 48.362064 -7.313855 7.511057 -8.534408 -12.637552 32.201035 -10.334194 7.162703 -0.290072 33.166111 -5.132386 -5.277837 -30.117723 -5.539518 -4.791441 -4.215538 -8.010635 -2.054522 22.571444 5.672195 3.825085 -32.725723 -4.599120 -1.427135 
85.790024 51.394016 -5.142984 -0.124220 5.283535 -80.665901 15.338484 -7.237777 2.061422 -26.508371 3.609223 1.098509 -9.028531 -11.329703 -4.200033 8.806314 36.358997 -10.182585 -10.275489 -5.709454 -1.550532 -76.193199 -20.556055 -28.828913 -66.311783 9.425202 15.297232 8.524705 12.647240 -23.323620 5.831508 6.350754 -0.460990 76.078697 19.549248 -21.236553 48.466114 -7.340153 7.548069 -8.534408 -12.637552 31.956890 -10.418006 7.137363 -0.454429 33.206223 -5.128121 -5.280139 -30.193510 -5.417613 -4.708336 -4.276599 -8.035222 -2.144083 22.571444 5.672196 3.825085 -32.650776 -4.576258 -1.381937 
85.791374 51.394016 -5.119016 -0.077562 5.357830 -80.719589 15.272522 -7.087559 2.147133 -26.507980 3.463151 1.113199 -9.392036 -11.624784 -3.969276 9.468906 36.724678 -9.663244 -10.275489 -5.709454 -1.550532 -76.251656 -20.467619 -27.925566 -65.790794 9.440761 15.056208 8.524705 12.647240 -25.179090 5.831508 6.350754 -0.460990 76.182961 19.571154 -21.112406 48.528202 -7.355028 7.577930 -8.534408 -12.637552 31.615091 -10.512939 7.125811 -0.492680 33.234917 -5.137732 -5.275690 -30.229946 -5.333660 -4.662161 -4.364248 -8.034844 -2.222744 22.562935 5.662874 3.841968 -32.569874 -4.509449 -1.339064 
85.796112 51.395370 -5.100448 -0.037795 5.413195 -80.764557 15.256588 -6.924812 2.157741 -26.546694 3.297321 1.097021 -9.650376 -11.769545 -3.734101 9.991289 36.840416 -9.100400 -10.275489 -5.709454 -1.550532 -76.293472 -20.366011 -27.236120 -65.345222 9.452928 14.854432 8.524705 12.647240 -26.839243 5.831508 6.350754 -0.460990 76.295555 19.603867 -20.942932 48.632278 -7.381000 7.615141 -8.534408 -12.637552 31.322124 -10.591034 7.135567 -0.511806 33.255661 -5.128038 -5.284448 -30.257635 -5.291152 -4.645219 -4.430202 -8.020471 -2.222055 22.540617 5.672100 3.841873 -32.541168 -4.498353 -1.340824 
85.789352 51.393345 -5.110238 -0.048815 5.365253 -80.765495 15.383577 -6.867039 2.066153 -26.634556 3.229631 1.065140 -9.723620 -11.730452 -3.575311 10.220729 36.710728 -8.709352 -10.275489 -5.709454 -1.550532 -76.373840 -20.221985 -26.495930 -64.960617 9.453751 14.668927 8.524705 12.647240 -28.538465 5.831508 6.350754 -0.460990 76.410683 19.617203 -20.652975 48.736378 -7.406765 7.653733 -8.534408 -12.637552 31.195171 -10.525262 7.166554 -0.532666 33.265224 -5.128045 -5.295010 -30.251059 -5.332747 -4.651293 -4.342951 -7.972652 -2.073354 22.510447 5.671852 3.839196 -32.633488 -4.634989 -1.425328 
85.765717 51.388615 -5.134883 -0.037985 5.276508 -80.715660 15.492786 -6.790604 1.883381 -26.673662 3.208692 1.005099 -9.797419 -11.726232 -3.388887 10.481432 36.635117 -8.263609 -10.275489 -5.709454 -1.550532 -76.489532 -20.094751 -25.718655 -64.493202 9.457514 14.447443 8.524705 12.647240 -30.706430 5.831508 6.350754 -0.460990 76.451057 19.680918 -20.374296 48.736378 -7.406765 7.653733 -8.534408 -12.637552 31.019386 -10.397756 7.263725 -0.419164 33.274521 -5.132453 -5.297085 -30.218697 -5.487124 -4.760921 -4.159099 -7.868831 -1.893527 22.467869 5.682746 3.827023 -32.797039 -4.822515 -1.565150 
85.749855 51.391319 -5.141973 0.012727 5.272402 -80.662270 15.499582 -6.620538 1.776919 -26.732134 3.120419 0.966087 -9.900315 -11.703619 -3.200421 10.778791 36.517933 -7.780861 -10.275489 -5.709454 -1.550532 -76.633339 -19.972954 -24.864727 -63.949764 9.454338 14.198688 8.524705 12.647240 -33.411514 5.831508 6.350754 -0.460990 76.453049 19.740185 -20.114164 48.684700 -7.397437 7.643559 -8.534408 -12.637552 30.872906 -10.422605 7.368107 -0.236339 33.264248 -5.137799 -5.288008 -30.142523 -5.664639 -4.860052 -4.089570 -7.778360 -1.841502 22.409679 5.673137 3.820038 -32.854328 -4.914659 -1.626787 
85.741737 51.398403 -5.133533 0.019113 5.320710 -80.652504 15.506064 -6.510180 1.732908 -26.858932 2.994921 0.944712 -10.138507 -11.596108 -2.971871 11.278836 36.217113 -7.195476 -10.275489 -5.709454 -1.550532 -76.757362 -19.807474 -24.077759 -63.490517 9.444208 13.979962 8.524705 12.647240 -35.745495 5.831508 6.350754 -0.460990 76.499031 19.686478 -19.740776 48.736378 -7.406765 7.653733 -8.534408 -12.637552 31.038923 -10.463004 7.388508 -0.089462 33.254688 -5.137796 -5.277445 -30.073883 -5.803434 -4.931677 -4.088889 -7.786788 -1.871145 22.337626 5.682056 3.796047 -32.802761 -4.935019 -1.627669 
85.730942 51.403133 -5.122054 0.027218 5.349335 -80.602776 15.502088 -6.415914 1.766075 -26.946602 2.869118 0.935609 -10.379982 -11.330195 -2.754120 11.729980 35.626057 -6.587207 -10.275489 -5.709454 -1.550532 -76.828217 -19.661650 -23.246130 -63.053116 9.433340 13.782842 8.524705 12.647240 -37.923233 5.831508 6.350754 -0.460990 76.559677 19.595114 -19.328579 48.924099 -7.455432 7.729332 -8.534408 -12.637552 31.468607 -10.474614 7.399552 -0.050267 33.244797 -5.137762 -5.276567 -30.094805 -5.887782 -4.994133 -4.071001 -7.819463 -1.970593 22.276590 5.681697 3.810157 -32.757553 -4.984985 -1.639161 
85.719810 51.408875 -5.108888 0.127533 5.409390 -80.515305 15.426841 -6.235052 1.852673 -26.975578 2.732998 0.939865 -10.485070 -10.931064 -2.522622 11.734345 34.809410 -6.026867 -10.275489 -5.709454 -1.550532 -76.879242 -19.561848 -22.420668 -62.595131 9.418990 13.565029 8.524705 12.647240 -40.198616 5.831508 6.350754 -0.460990 76.601852 19.570488 -19.023561 49.101040 -7.499426 7.806193 -8.534408 -12.637552 31.908062 -10.571413 7.477122 -0.120614 33.234917 -5.137733 -5.275691 -30.084209 -5.943724 -5.010523 -4.070531 -7.730506 -2.086002 22.236132 5.683486 3.796346 -32.737717 -4.985610 -1.638396 
85.708992 51.415627 -5.096059 0.212457 5.499805 -80.391876 15.304639 -6.075919 1.919580 -27.004730 2.665180 0.941364 -10.646346 -10.526428 -2.191095 11.779195 33.939152 -5.265677 -10.275489 -5.709454 -1.550532 -76.984459 -19.482481 -21.539452 -62.136131 9.399401 13.358624 8.524705 12.647240 -42.610733 5.831508 6.350754 -0.460990 76.567268 19.536959 -18.700314 49.225540 -7.527008 7.855877 -8.534408 -12.637552 32.396343 -10.721348 7.538119 -0.238695 33.225040 -5.137703 -5.274816 -30.018887 -6.005103 -5.060767 -4.098596 -7.679237 -2.222134 22.165676 5.682901 3.790099 -32.724545 -5.013540 -1.646497 
85.700897 51.421703 -5.084918 0.209275 5.587679 -80.235191 15.233403 -6.112250 2.076569 -27.043671 2.619143 0.990433 -10.869891 -9.919895 -1.886573 11.858047 32.891315 -4.478685 -10.275489 -5.709454 -1.550532 -77.011536 -19.447834 -20.417339 -61.636261 9.378930 13.138959 8.524705 12.647240 -45.218151 5.831508 6.350754 -0.460990 76.598587 19.520912 -18.544806 49.382427 -7.566674 7.913066 -8.534408 -12.637552 32.923683 -10.836541 7.497712 -0.374111 33.225044 -5.137696 -5.274812 -29.966421 -6.058212 -5.095113 -4.109642 -7.730800 -2.420464 22.085674 5.682601 3.763591 -32.694420 -5.017102 -1.647436 
85.691109 51.425755 -5.073778 0.218728 5.606013 -80.029243 15.249007 -6.234686 2.392579 -27.082619 2.594825 1.087492 -10.984007 -9.064644 -1.577923 11.582018 31.439833 -3.732378 -10.275489 -5.709454 -1.550532 -76.988617 -19.463345 -19.225000 -61.144939 9.347792 12.913494 8.524705 12.647240 -47.483776 5.831508 6.350754 -0.460990 76.646576 19.526476 -18.663221 49.600349 -7.613743 8.003573 -8.534408 -12.637552 33.353374 -10.854472 7.467360 -0.451591 33.205280 -5.137639 -5.273061 -29.879465 -6.176030 -5.160936 -4.020039 -7.755824 -2.646849 22.002857 5.691273 3.758092 -32.659569 -5.062703 -1.656905 
85.677605 51.429802 -5.063311 0.242083 5.593637 -79.754402 15.263530 -6.211645 2.610343 -27.141062 2.540026 1.145996 -11.099752 -8.184531 -1.046960 11.268194 29.881689 -2.494897 -10.275489 -5.709454 -1.550532 -77.048996 -19.365356 -18.087553 -60.783901 9.328602 12.755890 8.524705 12.647240 -49.573620 5.831508 6.350754 -0.460990 76.675888 19.451160 -18.631163 49.767994 -7.656695 8.070450 -8.534408 -12.637552 33.675640 -10.863092 7.495930 -0.491818 33.165394 -5.137718 -5.279310 -29.744026 -6.370549 -5.265778 -3.905273 -7.751024 -2.853256 21.951679 5.692879 3.762805 -32.688221 -5.143595 -1.708224 
85.661064 51.433853 -5.055546 0.209366 5.625338 -79.473175 15.251681 -6.167723 2.674828 -27.228960 2.522723 1.152759 -11.089693 -7.328155 -0.317903 10.795456 28.304640 -0.890843 -10.275489 -5.709454 -1.550532 -77.664368 -18.736746 -13.934493 -60.175461 9.280254 12.473402 8.524705 12.647240 -58.059948 5.831508 6.350754 -0.460990 76.630928 19.347555 -18.457195 49.830395 -7.669427 8.090211 -8.534408 -12.637552 33.792828 -10.904586 7.429168 -0.557590 33.114990 -5.147310 -5.267035 -29.598007 -6.551080 -5.382298 -3.846451 -7.819049 -3.022362 21.879179 5.701684 3.748474 -32.731121 -5.256995 -1.796571 
85.642487 51.434528 -5.044069 0.147251 5.679477 -79.174973 15.230273 -6.128667 2.696328 -27.346083 2.466550 1.150430 -10.894001 -6.396997 0.525974 9.960196 26.627562 0.912798 -10.275489 -5.709454 -1.550532 -77.697823 -18.763155 -13.926538 -60.207954 9.283991 12.486337 8.524705 12.647240 -58.225964 5.831508 6.350754 -0.460990 76.672829 19.175312 -18.392675 49.934479 -7.693399 8.140005 -8.534408 -12.637552 33.734238 -10.929058 7.308908 -0.681340 33.116703 -5.132221 -5.273453 -29.577475 -6.669565 -5.465393 -3.777312 -7.924946 -3.182833 21.818659 5.701417 3.743160 -32.803871 -5.375260 -1.867935 
